
<svg width="335px" height="338px" viewBox="0 0 335 338" version="1.1" xmlns="http://www.w3.org/2000/svg" xmlns:xlink="http://www.w3.org/1999/xlink">
    <g id="map" stroke="none" stroke-width="1" fill="none" fill-rule="evenodd">
        <g id="Extra-Large" transform="translate(-294.000000, -142.000000)" stroke="#000000">
            <g id="Group-3" transform="translate(294.427720, 142.689000)">
                <g id="Group" transform="translate(167.072280, 168.311000) rotate(34.000000) translate(-167.072280, -168.311000) translate(48.572280, 45.220510)">
                    <ellipse id="Oval" stroke-width="5" cx="118.5" cy="122.590489" rx="116" ry="74"></ellipse>
                    <path d="M173.145931,31.7105193 C175.810677,31.3639828 178.607622,32.0340127 180.905154,33.802747 C181.623453,34.3557237 182.26712,34.9993903 182.820097,35.7176899 L208.969792,69.6853357 C210.738526,71.9828669 211.408556,74.7798123 211.06202,77.4445584 C210.715483,80.1093046 209.35238,82.6418515 207.054849,84.4105859 C205.218808,85.8240463 202.966788,86.5904894 200.649696,86.5904894 L148.350304,86.5904894 C145.45081,86.5904894 142.82581,85.4152368 140.925683,83.5151106 C139.025557,81.6149843 137.850304,78.9899843 137.850304,76.0904894 C137.850304,73.7733968 138.616748,71.521377 140.030208,69.6853357 L166.179903,35.7176899 C167.948638,33.4201587 170.481185,32.0570558 173.145931,31.7105193 Z" id="Triangle" fill="#000000" transform="translate(174.500000, 55.590489) rotate(107.000000) translate(-174.500000, -55.590489) "></path>
                    <path d="M73.1459309,166.710519 C75.8106771,166.363983 78.6076225,167.034013 80.9051537,168.802747 C81.6234533,169.355724 82.2671199,169.99939 82.8200965,170.71769 L108.969792,204.685336 C110.738526,206.982867 111.408556,209.779812 111.06202,212.444558 C110.715483,215.109305 109.35238,217.641852 107.054849,219.410586 C105.218808,220.824046 102.966788,221.590489 100.649696,221.590489 L48.3503044,221.590489 C45.4508095,221.590489 42.8258095,220.415237 40.9256832,218.515111 C39.025557,216.614984 37.8503044,213.989984 37.8503044,211.090489 C37.8503044,208.773397 38.6167475,206.521377 40.0302079,204.685336 L66.1799035,170.71769 C67.9486378,168.420159 70.4811848,167.057056 73.1459309,166.710519 Z" id="Triangle-Copy" fill="#000000" transform="translate(74.500000, 190.590489) scale(-1, -1) rotate(107.000000) translate(-74.500000, -190.590489) "></path>
                </g>
            </g>
        </g>
    </g>
</svg>
