
<svg width="335px" height="338px" viewBox="0 0 335 338" version="1.1" xmlns="http://www.w3.org/2000/svg" xmlns:xlink="http://www.w3.org/1999/xlink">
    <g id="map" stroke="none" stroke-width="1" fill="none" fill-rule="evenodd">
        <g id="Extra-Large" transform="translate(-294.000000, -142.000000)">
            <g id="Group-2" transform="translate(294.427720, 142.689000)">
                <g id="Group" transform="translate(167.072280, 168.311000) rotate(34.000000) translate(-167.072280, -168.311000) translate(48.572280, 45.220510)">
                    <ellipse id="Oval" stroke="#979797" stroke-width="5" cx="118.5" cy="122.590489" rx="116" ry="74"></ellipse>
                    <path d="M183.216292,35.4126826 L209.365987,69.3803284 C213.071907,74.1942033 212.173731,81.1008614 207.359857,84.806781 C205.436385,86.287549 203.077126,87.0904894 200.649696,87.0904894 L148.350304,87.0904894 C142.275172,87.0904894 137.350304,82.1656216 137.350304,76.0904894 C137.350304,73.663059 138.153245,71.3038002 139.634013,69.3803284 L165.783708,35.4126826 C169.489628,30.5988077 176.396286,29.7006324 181.210161,33.406552 C181.962665,33.9858609 182.636983,34.6601783 183.216292,35.4126826 Z" id="Triangle" fill="#979797" transform="translate(174.500000, 55.590489) rotate(107.000000) translate(-174.500000, -55.590489) "></path>
                    <path d="M83.2162916,170.412683 L109.365987,204.380328 C113.071907,209.194203 112.173731,216.100861 107.359857,219.806781 C105.436385,221.287549 103.077126,222.090489 100.649696,222.090489 L48.3503044,222.090489 C42.2751722,222.090489 37.3503044,217.165622 37.3503044,211.090489 C37.3503044,208.663059 38.1532448,206.3038 39.6340128,204.380328 L65.7837084,170.412683 C69.489628,165.598808 76.3962861,164.700632 81.210161,168.406552 C81.9626653,168.985861 82.6369827,169.660178 83.2162916,170.412683 Z" id="Triangle-Copy" fill="#979797" transform="translate(74.500000, 190.590489) scale(-1, -1) rotate(107.000000) translate(-74.500000, -190.590489) "></path>
                </g>
            </g>
        </g>
    </g>
</svg>
