
<svg width="310px" height="310px" viewBox="0 0 310 310">
    <g id="Page-1" stroke="none" stroke-width="1" fill="none" fill-rule="evenodd">
        <g id="Group">
            <path d="M204.033057,218.96104 L256.883488,271.813701 C229.640556,295.59442 194.00258,310 155,310 C116.048449,310 80.4527029,295.63209 53.2234846,271.906992 L105.645019,219.485281 C119.192952,229.845315 136.127724,236 154.5,236 C173.180081,236 190.374087,229.637359 204.033057,218.96104 Z M38.1871718,53.1155131 L91.0389601,105.966943 C80.3626408,119.625913 74,136.819919 74,155.5 C74,174.378083 80.4982394,191.738422 91.3799079,205.466205 L39.0180725,257.828626 C14.7419011,230.467327 0,194.455241 0,155 C0,115.996943 14.4059325,80.3585724 38.1871718,53.1155131 Z M310,155 C310,194.404004 295.296362,230.37379 271.076455,257.721988 L218.148009,204.792925 C228.711601,191.172821 235,174.070777 235,155.5 C235,137.127724 228.845315,120.192952 218.485281,106.645019 L271.906992,53.2234846 C295.63209,80.4527029 310,116.048449 310,155 Z M155,0 C194.455241,0 230.467327,14.7419011 257.828626,39.0180725 L204.466205,92.3799079 C190.738422,81.4982394 173.378083,75 154.5,75 C135.929223,75 118.827179,81.2883988 105.207075,91.8519914 L52.2780119,38.9235452 C79.6262098,14.7036381 115.595996,0 155,0 Z" id="Combined-Shape" fill="#E7E7E7"></path>
            <g id="Turn-Left" transform="translate(16.802818, 138.700000)" fill="#BCBCBC" fill-rule="nonzero">
                <path d="M0.874,0 L12.654,0 C12.9073333,0 13.1163333,0.0823333333 13.281,0.247 C13.4456667,0.411666667 13.528,0.620666667 13.528,0.874 L13.528,1.748 C13.528,2.00133333 13.4456667,2.21033333 13.281,2.375 C13.1163333,2.53966667 12.9073333,2.622 12.654,2.622 L8.512,2.622 L8.512,12.445 C8.512,12.6856667 8.4265,12.8883333 8.2555,13.053 C8.0845,13.2176667 7.87866667,13.3 7.638,13.3 L5.89,13.3 C5.64933333,13.3 5.4435,13.2176667 5.2725,13.053 C5.1015,12.8883333 5.016,12.6856667 5.016,12.445 L5.016,2.622 L0.874,2.622 C0.620666667,2.622 0.411666667,2.53966667 0.247,2.375 C0.0823333333,2.21033333 0,2.00133333 0,1.748 L0,0.874 C0,0.620666667 0.0823333333,0.411666667 0.247,0.247 C0.411666667,0.0823333333 0.620666667,0 0.874,0 Z" id="Path"></path>
                <path d="M15.8580909,3.705 L15.8580909,9.025 C15.8580909,10.507 16.4470909,11.248 17.6250909,11.248 C18.3977576,11.248 19.2274242,10.8046667 20.1140909,9.918 L20.1140909,3.705 C20.1140909,3.54033333 20.1679242,3.40416667 20.2755909,3.2965 C20.3832576,3.18883333 20.5194242,3.135 20.6840909,3.135 L22.7550909,3.135 C22.9197576,3.135 23.0559242,3.18883333 23.1635909,3.2965 C23.2712576,3.40416667 23.3250909,3.54033333 23.3250909,3.705 L23.3250909,12.73 C23.3250909,12.8946667 23.2712576,13.0308333 23.1635909,13.1385 C23.0559242,13.2461667 22.9197576,13.3 22.7550909,13.3 L20.6840909,13.3 C20.5194242,13.3 20.3832576,13.2461667 20.2755909,13.1385 C20.1679242,13.0308333 20.1140909,12.8946667 20.1140909,12.73 L20.1140909,12.141 C19.0500909,13.0403333 17.9670909,13.49 16.8650909,13.49 C15.5604242,13.49 14.5312576,13.1226667 13.7775909,12.388 C13.0239242,11.6533333 12.6470909,10.5323333 12.6470909,9.025 L12.6470909,3.705 C12.6470909,3.54033333 12.7009242,3.40416667 12.8085909,3.2965 C12.9162576,3.18883333 13.0524242,3.135 13.2170909,3.135 L15.2880909,3.135 C15.4527576,3.135 15.5889242,3.18883333 15.6965909,3.2965 C15.8042576,3.40416667 15.8580909,3.54033333 15.8580909,3.705 Z" id="Path"></path>
                <path d="M32.8181818,3.515 L32.8181818,4.921 C32.8181818,5.08566667 32.7643485,5.22183333 32.6566818,5.3295 C32.5490152,5.43716667 32.4128485,5.491 32.2481818,5.491 L31.9441818,5.491 C31.8048485,5.491 31.5736818,5.4815 31.2506818,5.4625 C30.9276818,5.4435 30.6838485,5.434 30.5191818,5.434 C29.6831818,5.434 28.8851818,5.89 28.1251818,6.802 L28.1251818,12.73 C28.1251818,12.8946667 28.0713485,13.0308333 27.9636818,13.1385 C27.8560152,13.2461667 27.7198485,13.3 27.5551818,13.3 L25.4841818,13.3 C25.3195152,13.3 25.1833485,13.2461667 25.0756818,13.1385 C24.9680152,13.0308333 24.9141818,12.8946667 24.9141818,12.73 L24.9141818,3.705 C24.9141818,3.54033333 24.9680152,3.40416667 25.0756818,3.2965 C25.1833485,3.18883333 25.3195152,3.135 25.4841818,3.135 L27.5551818,3.135 C27.7198485,3.135 27.8560152,3.18883333 27.9636818,3.2965 C28.0713485,3.40416667 28.1251818,3.54033333 28.1251818,3.705 L28.1251818,4.294 C28.7585152,3.838 29.3665152,3.49916667 29.9491818,3.2775 C30.5318485,3.05583333 31.2981818,2.945 32.2481818,2.945 C32.4128485,2.945 32.5490152,2.99883333 32.6566818,3.1065 C32.7643485,3.21416667 32.8181818,3.35033333 32.8181818,3.515 Z" id="Path"></path>
                <path d="M40.9242727,12.73 L40.9242727,7.41 C40.9242727,5.928 40.3352727,5.187 39.1572727,5.187 C38.3846061,5.187 37.5549394,5.63033333 36.6682727,6.517 L36.6682727,12.73 C36.6682727,12.8946667 36.6144394,13.0308333 36.5067727,13.1385 C36.3991061,13.2461667 36.2629394,13.3 36.0982727,13.3 L34.0272727,13.3 C33.8626061,13.3 33.7264394,13.2461667 33.6187727,13.1385 C33.5111061,13.0308333 33.4572727,12.8946667 33.4572727,12.73 L33.4572727,3.705 C33.4572727,3.54033333 33.5111061,3.40416667 33.6187727,3.2965 C33.7264394,3.18883333 33.8626061,3.135 34.0272727,3.135 L36.0982727,3.135 C36.2629394,3.135 36.3991061,3.18883333 36.5067727,3.2965 C36.6144394,3.40416667 36.6682727,3.54033333 36.6682727,3.705 L36.6682727,4.294 C37.7322727,3.39466667 38.8152727,2.945 39.9172727,2.945 C41.2219394,2.945 42.2511061,3.31233333 43.0047727,4.047 C43.7584394,4.78166667 44.1352727,5.90266667 44.1352727,7.41 L44.1352727,12.73 C44.1352727,12.8946667 44.0814394,13.0308333 43.9737727,13.1385 C43.8661061,13.2461667 43.7299394,13.3 43.5652727,13.3 L41.4942727,13.3 C41.3296061,13.3 41.1934394,13.2461667 41.0857727,13.1385 C40.9781061,13.0308333 40.9242727,12.8946667 40.9242727,12.73 Z" id="Path"></path>
                <path d="M3.8855,22 L5.6335,22 C5.87416667,22 6.08,22.0855 6.251,22.2565 C6.422,22.4275 6.5075,22.6396667 6.5075,22.893 L6.5075,32.678 L14.5825,32.678 C14.8231667,32.678 15.029,32.7635 15.2,32.9345 C15.371,33.1055 15.4565,33.3113333 15.4565,33.552 L15.4565,34.426 C15.4565,34.6666667 15.371,34.8725 15.2,35.0435 C15.029,35.2145 14.8231667,35.3 14.5825,35.3 L3.8855,35.3 C3.64483333,35.3 3.439,35.2176667 3.268,35.053 C3.097,34.8883333 3.0115,34.6856667 3.0115,34.445 L3.0115,22.893 C3.0115,22.6396667 3.097,22.4275 3.268,22.2565 C3.439,22.0855 3.64483333,22 3.8855,22 Z" id="Path"></path>
                <path d="M25.7855909,31.196 L18.7935909,31.196 C18.8569242,31.956 19.0754242,32.5101667 19.4490909,32.8585 C19.8227576,33.2068333 20.3959242,33.381 21.1685909,33.381 C22.0425909,33.381 22.6505909,33.172 22.9925909,32.754 C23.2585909,32.4246667 23.6132576,32.26 24.0565909,32.26 L25.4435909,32.26 C25.6082576,32.26 25.7444242,32.3138333 25.8520909,32.4215 C25.9597576,32.5291667 26.0135909,32.6653333 26.0135909,32.83 C26.0135909,34.6033333 24.3225909,35.49 20.9405909,35.49 C19.2305909,35.49 17.9005909,35.0371667 16.9505909,34.1315 C16.0005909,33.2258333 15.5255909,31.9243333 15.5255909,30.227 C15.5255909,28.5296667 16.0037576,27.225 16.9600909,26.313 C17.9164242,25.401 19.2432576,24.945 20.9405909,24.945 C22.6505909,24.945 23.9805909,25.3883333 24.9305909,26.275 C25.8805909,27.1616667 26.3555909,28.4346667 26.3555909,30.094 L26.3555909,30.626 C26.3555909,30.7906667 26.3017576,30.9268333 26.1940909,31.0345 C26.0864242,31.1421667 25.9502576,31.196 25.7855909,31.196 Z M23.0875909,29.239 C23.0242576,27.7823333 22.3085909,27.054 20.9405909,27.054 C19.5725909,27.054 18.8505909,27.7823333 18.7745909,29.239 L23.0875909,29.239 Z" id="Shape"></path>
                <path d="M27.3746818,34.73 L27.3746818,26.56 C27.3746818,24.8373333 27.7673485,23.615 28.5526818,22.893 C29.3380152,22.171 30.7186818,21.81 32.6946818,21.81 C33.7080152,21.81 34.5313485,21.8733333 35.1646818,22 C35.3293485,22.0253333 35.4655152,22.0918333 35.5731818,22.1995 C35.6808485,22.3071667 35.7346818,22.4306667 35.7346818,22.57 L35.7346818,23.596 C35.7346818,23.7606667 35.6808485,23.8968333 35.5731818,24.0045 C35.4655152,24.1121667 35.3293485,24.166 35.1646818,24.166 L34.8226818,24.166 C34.6960152,24.166 34.4933485,24.1406667 34.2146818,24.09 C33.9360152,24.0393333 33.7143485,24.014 33.5496818,24.014 C32.3210152,24.014 31.5198485,24.1786667 31.1461818,24.508 C30.7725152,24.8373333 30.5856818,25.5213333 30.5856818,26.56 L30.5856818,26.712 L33.9486818,26.712 C34.1133485,26.712 34.2495152,26.7658333 34.3571818,26.8735 C34.4648485,26.9811667 34.5186818,27.1173333 34.5186818,27.282 L34.5186818,28.384 C34.5186818,28.5486667 34.4648485,28.6848333 34.3571818,28.7925 C34.2495152,28.9001667 34.1133485,28.954 33.9486818,28.954 L30.5856818,28.954 L30.5856818,34.73 C30.5856818,34.8946667 30.5318485,35.0308333 30.4241818,35.1385 C30.3165152,35.2461667 30.1803485,35.3 30.0156818,35.3 L27.9446818,35.3 C27.7800152,35.3 27.6438485,35.2461667 27.5361818,35.1385 C27.4285152,35.0308333 27.3746818,34.8946667 27.3746818,34.73 Z" id="Path"></path>
                <path d="M42.4537727,35.3 C41.8204394,35.4266667 40.9971061,35.49 39.9837727,35.49 C37.3237727,35.49 35.9937727,34.0966667 35.9937727,31.31 L35.9937727,22.57 C35.9937727,22.4053333 36.0476061,22.2691667 36.1552727,22.1615 C36.2629394,22.0538333 36.3991061,22 36.5637727,22 L38.6347727,22 C38.7994394,22 38.9356061,22.0538333 39.0432727,22.1615 C39.1509394,22.2691667 39.2047727,22.4053333 39.2047727,22.57 L39.2047727,25.667 L41.7887727,25.667 C41.9534394,25.667 42.0896061,25.7208333 42.1972727,25.8285 C42.3049394,25.9361667 42.3587727,26.0723333 42.3587727,26.237 L42.3587727,27.339 C42.3587727,27.5036667 42.3049394,27.6398333 42.1972727,27.7475 C42.0896061,27.8551667 41.9534394,27.909 41.7887727,27.909 L39.2047727,27.909 L39.2047727,31.31 C39.2047727,31.9433333 39.3536061,32.431 39.6512727,32.773 C39.9489394,33.115 40.3447727,33.286 40.8387727,33.286 C41.0034394,33.286 41.2251061,33.267 41.5037727,33.229 C41.7824394,33.191 41.9851061,33.172 42.1117727,33.172 L42.4537727,33.172 C42.6184394,33.172 42.7546061,33.2258333 42.8622727,33.3335 C42.9699394,33.4411667 43.0237727,33.5773333 43.0237727,33.742 L43.0237727,34.73 C43.0237727,34.8693333 42.9699394,34.9928333 42.8622727,35.1005 C42.7546061,35.2081667 42.6184394,35.2746667 42.4537727,35.3 Z" id="Path"></path>
            </g>
            <g id="Turn-Right" transform="translate(247.649773, 138.700000)" fill="#BCBCBC" fill-rule="nonzero">
                <path d="M3.02704545,0 L14.8070455,0 C15.0603788,0 15.2693788,0.0823333333 15.4340455,0.247 C15.5987121,0.411666667 15.6810455,0.620666667 15.6810455,0.874 L15.6810455,1.748 C15.6810455,2.00133333 15.5987121,2.21033333 15.4340455,2.375 C15.2693788,2.53966667 15.0603788,2.622 14.8070455,2.622 L10.6650455,2.622 L10.6650455,12.445 C10.6650455,12.6856667 10.5795455,12.8883333 10.4085455,13.053 C10.2375455,13.2176667 10.0317121,13.3 9.79104545,13.3 L8.04304545,13.3 C7.80237879,13.3 7.59654545,13.2176667 7.42554545,13.053 C7.25454545,12.8883333 7.16904545,12.6856667 7.16904545,12.445 L7.16904545,2.622 L3.02704545,2.622 C2.77371212,2.622 2.56471212,2.53966667 2.40004545,2.375 C2.23537879,2.21033333 2.15304545,2.00133333 2.15304545,1.748 L2.15304545,0.874 C2.15304545,0.620666667 2.23537879,0.411666667 2.40004545,0.247 C2.56471212,0.0823333333 2.77371212,0 3.02704545,0 Z" id="Path"></path>
                <path d="M18.0111364,3.705 L18.0111364,9.025 C18.0111364,10.507 18.6001364,11.248 19.7781364,11.248 C20.550803,11.248 21.3804697,10.8046667 22.2671364,9.918 L22.2671364,3.705 C22.2671364,3.54033333 22.3209697,3.40416667 22.4286364,3.2965 C22.536303,3.18883333 22.6724697,3.135 22.8371364,3.135 L24.9081364,3.135 C25.072803,3.135 25.2089697,3.18883333 25.3166364,3.2965 C25.424303,3.40416667 25.4781364,3.54033333 25.4781364,3.705 L25.4781364,12.73 C25.4781364,12.8946667 25.424303,13.0308333 25.3166364,13.1385 C25.2089697,13.2461667 25.072803,13.3 24.9081364,13.3 L22.8371364,13.3 C22.6724697,13.3 22.536303,13.2461667 22.4286364,13.1385 C22.3209697,13.0308333 22.2671364,12.8946667 22.2671364,12.73 L22.2671364,12.141 C21.2031364,13.0403333 20.1201364,13.49 19.0181364,13.49 C17.7134697,13.49 16.684303,13.1226667 15.9306364,12.388 C15.1769697,11.6533333 14.8001364,10.5323333 14.8001364,9.025 L14.8001364,3.705 C14.8001364,3.54033333 14.8539697,3.40416667 14.9616364,3.2965 C15.069303,3.18883333 15.2054697,3.135 15.3701364,3.135 L17.4411364,3.135 C17.605803,3.135 17.7419697,3.18883333 17.8496364,3.2965 C17.957303,3.40416667 18.0111364,3.54033333 18.0111364,3.705 Z" id="Path"></path>
                <path d="M34.9712273,3.515 L34.9712273,4.921 C34.9712273,5.08566667 34.9173939,5.22183333 34.8097273,5.3295 C34.7020606,5.43716667 34.5658939,5.491 34.4012273,5.491 L34.0972273,5.491 C33.9578939,5.491 33.7267273,5.4815 33.4037273,5.4625 C33.0807273,5.4435 32.8368939,5.434 32.6722273,5.434 C31.8362273,5.434 31.0382273,5.89 30.2782273,6.802 L30.2782273,12.73 C30.2782273,12.8946667 30.2243939,13.0308333 30.1167273,13.1385 C30.0090606,13.2461667 29.8728939,13.3 29.7082273,13.3 L27.6372273,13.3 C27.4725606,13.3 27.3363939,13.2461667 27.2287273,13.1385 C27.1210606,13.0308333 27.0672273,12.8946667 27.0672273,12.73 L27.0672273,3.705 C27.0672273,3.54033333 27.1210606,3.40416667 27.2287273,3.2965 C27.3363939,3.18883333 27.4725606,3.135 27.6372273,3.135 L29.7082273,3.135 C29.8728939,3.135 30.0090606,3.18883333 30.1167273,3.2965 C30.2243939,3.40416667 30.2782273,3.54033333 30.2782273,3.705 L30.2782273,4.294 C30.9115606,3.838 31.5195606,3.49916667 32.1022273,3.2775 C32.6848939,3.05583333 33.4512273,2.945 34.4012273,2.945 C34.5658939,2.945 34.7020606,2.99883333 34.8097273,3.1065 C34.9173939,3.21416667 34.9712273,3.35033333 34.9712273,3.515 Z" id="Path"></path>
                <path d="M43.0773182,12.73 L43.0773182,7.41 C43.0773182,5.928 42.4883182,5.187 41.3103182,5.187 C40.5376515,5.187 39.7079848,5.63033333 38.8213182,6.517 L38.8213182,12.73 C38.8213182,12.8946667 38.7674848,13.0308333 38.6598182,13.1385 C38.5521515,13.2461667 38.4159848,13.3 38.2513182,13.3 L36.1803182,13.3 C36.0156515,13.3 35.8794848,13.2461667 35.7718182,13.1385 C35.6641515,13.0308333 35.6103182,12.8946667 35.6103182,12.73 L35.6103182,3.705 C35.6103182,3.54033333 35.6641515,3.40416667 35.7718182,3.2965 C35.8794848,3.18883333 36.0156515,3.135 36.1803182,3.135 L38.2513182,3.135 C38.4159848,3.135 38.5521515,3.18883333 38.6598182,3.2965 C38.7674848,3.40416667 38.8213182,3.54033333 38.8213182,3.705 L38.8213182,4.294 C39.8853182,3.39466667 40.9683182,2.945 42.0703182,2.945 C43.3749848,2.945 44.4041515,3.31233333 45.1578182,4.047 C45.9114848,4.78166667 46.2883182,5.90266667 46.2883182,7.41 L46.2883182,12.73 C46.2883182,12.8946667 46.2344848,13.0308333 46.1268182,13.1385 C46.0191515,13.2461667 45.8829848,13.3 45.7183182,13.3 L43.6473182,13.3 C43.4826515,13.3 43.3464848,13.2461667 43.2388182,13.1385 C43.1311515,13.0308333 43.0773182,12.8946667 43.0773182,12.73 Z" id="Path"></path>
                <path d="M5.757,30.436 L3.496,30.436 L3.496,34.426 C3.496,34.6666667 3.4105,34.8725 3.2395,35.0435 C3.0685,35.2145 2.86266667,35.3 2.622,35.3 L0.874,35.3 C0.633333333,35.3 0.4275,35.2145 0.2565,35.0435 C0.0855,34.8725 -1.13686838e-13,34.6666667 -1.13686838e-13,34.426 L-1.13686838e-13,22.874 C-1.13686838e-13,22.6333333 0.0823333333,22.4275 0.247,22.2565 C0.411666667,22.0855 0.614333333,22 0.855,22 L8.512,22 C9.93066667,22 11.0928333,22.38 11.9985,23.14 C12.9041667,23.9 13.357,24.926 13.357,26.218 C13.357,28.0166667 12.1916667,29.144 9.861,29.6 C10.2283333,29.7393333 10.5703333,29.9736667 10.887,30.303 C11.2036667,30.6323333 11.5646667,31.1136667 11.97,31.747 L13.661,34.426 C13.813,34.6793333 13.8573333,34.8883333 13.794,35.053 C13.7306667,35.2176667 13.5786667,35.3 13.338,35.3 L11.115,35.3 C10.8743333,35.3 10.6146667,35.2145 10.336,35.0435 C10.0573333,34.8725 9.842,34.6666667 9.69,34.426 L8.113,31.956 C7.467,30.9426667 6.68166667,30.436 5.757,30.436 Z M7.448,24.622 L3.496,24.622 L3.496,27.814 L7.448,27.814 C8.08133333,27.814 8.64183333,27.6873333 9.1295,27.434 C9.61716667,27.1806667 9.861,26.7753333 9.861,26.218 C9.861,25.6606667 9.61716667,25.2553333 9.1295,25.002 C8.64183333,24.7486667 8.08133333,24.622 7.448,24.622 Z" id="Shape"></path>
                <path d="M17.1500909,35.3 L15.0790909,35.3 C14.9144242,35.3 14.7782576,35.2461667 14.6705909,35.1385 C14.5629242,35.0308333 14.5090909,34.8946667 14.5090909,34.73 L14.5090909,25.933 C14.5090909,25.7683333 14.5629242,25.6321667 14.6705909,25.5245 C14.7782576,25.4168333 14.9144242,25.363 15.0790909,25.363 L17.1500909,25.363 C17.3147576,25.363 17.4509242,25.4168333 17.5585909,25.5245 C17.6662576,25.6321667 17.7200909,25.7683333 17.7200909,25.933 L17.7200909,34.73 C17.7200909,34.8946667 17.6662576,35.0308333 17.5585909,35.1385 C17.4509242,35.2461667 17.3147576,35.3 17.1500909,35.3 Z M14.4710909,23.197 L14.4710909,22.874 C14.4710909,22.5446667 14.5660909,22.285 14.7560909,22.095 C14.9460909,21.905 15.2057576,21.81 15.5350909,21.81 L16.6940909,21.81 C17.0234242,21.81 17.2830909,21.905 17.4730909,22.095 C17.6630909,22.285 17.7580909,22.5446667 17.7580909,22.874 L17.7580909,23.197 C17.7580909,23.5263333 17.6630909,23.786 17.4730909,23.976 C17.2830909,24.166 17.0234242,24.261 16.6940909,24.261 L15.5350909,24.261 C15.2057576,24.261 14.9460909,24.166 14.7560909,23.976 C14.5660909,23.786 14.4710909,23.5263333 14.4710909,23.197 Z" id="Shape"></path>
                <path d="M18.7771818,29.771 C18.7771818,28.2383333 19.2680152,27.0508333 20.2496818,26.2085 C21.2313485,25.3661667 22.6405152,24.945 24.4771818,24.945 C25.3765152,24.945 26.3075152,25.0463333 27.2701818,25.249 C28.2328485,25.4516667 28.9611818,25.6986667 29.4551818,25.99 L29.4551818,34.578 C29.4551818,35.9586667 28.9991818,36.9783333 28.0871818,37.637 C27.1751818,38.2956667 25.9401818,38.625 24.3821818,38.625 C22.6595152,38.625 21.3548485,38.4191667 20.4681818,38.0075 C19.5815152,37.5958333 19.1381818,36.915 19.1381818,35.965 C19.1381818,35.8003333 19.1920152,35.6641667 19.2996818,35.5565 C19.4073485,35.4488333 19.5435152,35.395 19.7081818,35.395 L21.0951818,35.395 C21.5385152,35.395 21.8931818,35.5596667 22.1591818,35.889 C22.5011818,36.307 23.1661818,36.516 24.1541818,36.516 C24.9015152,36.516 25.4366818,36.3735 25.7596818,36.0885 C26.0826818,35.8035 26.2441818,35.3 26.2441818,34.578 L26.2441818,34.141 C25.2561818,34.3943333 24.3315152,34.521 23.4701818,34.521 C22.0641818,34.521 20.9305152,34.0966667 20.0691818,33.248 C19.2078485,32.3993333 18.7771818,31.2403333 18.7771818,29.771 Z M22.0831818,29.771 C22.0831818,31.443 22.7988485,32.279 24.2301818,32.279 C24.8255152,32.279 25.4968485,32.184 26.2441818,31.994 L26.2441818,27.396 C25.7121818,27.2566667 25.0598485,27.187 24.2871818,27.187 C22.8178485,27.187 22.0831818,28.0483333 22.0831818,29.771 Z" id="Shape"></path>
                <path d="M38.5112727,34.73 L38.5112727,29.41 C38.5112727,27.928 37.9222727,27.187 36.7442727,27.187 C35.9716061,27.187 35.1419394,27.6303333 34.2552727,28.517 L34.2552727,34.73 C34.2552727,34.8946667 34.2014394,35.0308333 34.0937727,35.1385 C33.9861061,35.2461667 33.8499394,35.3 33.6852727,35.3 L31.6142727,35.3 C31.4496061,35.3 31.3134394,35.2461667 31.2057727,35.1385 C31.0981061,35.0308333 31.0442727,34.8946667 31.0442727,34.73 L31.0442727,22.57 C31.0442727,22.4053333 31.0981061,22.2691667 31.2057727,22.1615 C31.3134394,22.0538333 31.4496061,22 31.6142727,22 L33.6852727,22 C33.8499394,22 33.9861061,22.0538333 34.0937727,22.1615 C34.2014394,22.2691667 34.2552727,22.4053333 34.2552727,22.57 L34.2552727,26.294 C35.3192727,25.3946667 36.4022727,24.945 37.5042727,24.945 C38.8089394,24.945 39.8381061,25.3123333 40.5917727,26.047 C41.3454394,26.7816667 41.7222727,27.9026667 41.7222727,29.41 L41.7222727,34.73 C41.7222727,34.8946667 41.6684394,35.0308333 41.5607727,35.1385 C41.4531061,35.2461667 41.3169394,35.3 41.1522727,35.3 L39.0812727,35.3 C38.9166061,35.3 38.7804394,35.2461667 38.6727727,35.1385 C38.5651061,35.0308333 38.5112727,34.8946667 38.5112727,34.73 Z" id="Path"></path>
                <path d="M49.7713636,35.3 C49.1380303,35.4266667 48.314697,35.49 47.3013636,35.49 C44.6413636,35.49 43.3113636,34.0966667 43.3113636,31.31 L43.3113636,22.57 C43.3113636,22.4053333 43.365197,22.2691667 43.4728636,22.1615 C43.5805303,22.0538333 43.716697,22 43.8813636,22 L45.9523636,22 C46.1170303,22 46.253197,22.0538333 46.3608636,22.1615 C46.4685303,22.2691667 46.5223636,22.4053333 46.5223636,22.57 L46.5223636,25.667 L49.1063636,25.667 C49.2710303,25.667 49.407197,25.7208333 49.5148636,25.8285 C49.6225303,25.9361667 49.6763636,26.0723333 49.6763636,26.237 L49.6763636,27.339 C49.6763636,27.5036667 49.6225303,27.6398333 49.5148636,27.7475 C49.407197,27.8551667 49.2710303,27.909 49.1063636,27.909 L46.5223636,27.909 L46.5223636,31.31 C46.5223636,31.9433333 46.671197,32.431 46.9688636,32.773 C47.2665303,33.115 47.6623636,33.286 48.1563636,33.286 C48.3210303,33.286 48.542697,33.267 48.8213636,33.229 C49.1000303,33.191 49.302697,33.172 49.4293636,33.172 L49.7713636,33.172 C49.9360303,33.172 50.072197,33.2258333 50.1798636,33.3335 C50.2875303,33.4411667 50.3413636,33.5773333 50.3413636,33.742 L50.3413636,34.73 C50.3413636,34.8693333 50.2875303,34.9928333 50.1798636,35.1005 C50.072197,35.2081667 49.9360303,35.2746667 49.7713636,35.3 Z" id="Path"></path>
            </g>
            <g id="Walk" transform="translate(131.668864, 30.700000)" fill="#BCBCBC" fill-rule="nonzero">
                <path d="M9.59845455,0 L11.3084545,0 C11.8657879,0 12.2331212,0.291333333 12.4104545,0.874 L14.6714545,8.227 L17.1224545,0.874 C17.2111212,0.620666667 17.3567879,0.411666667 17.5594545,0.247 C17.7621212,0.0823333333 17.9837879,0 18.2244545,0 L20.2574545,0 C20.4727879,0 20.6469545,0.0791666667 20.7799545,0.2375 C20.9129545,0.395833333 20.9414545,0.576333333 20.8654545,0.779 L16.7234545,12.35 C16.4954545,12.9833333 16.0521212,13.3 15.3934545,13.3 L14.0444545,13.3 C13.3604545,13.3 12.9171212,12.9833333 12.7144545,12.35 L10.4534545,5.206 L8.19245455,12.35 C7.98978788,12.9833333 7.54645455,13.3 6.86245455,13.3 L5.51345455,13.3 C4.85478788,13.3 4.41145455,12.9833333 4.18345455,12.35 L0.0414545455,0.779 C-0.0345454545,0.576333333 -0.00604545455,0.395833333 0.126954545,0.2375 C0.259954545,0.0791666667 0.434121212,0 0.649454545,0 L2.68245455,0 C2.92312121,0 3.14478788,0.0823333333 3.34745455,0.247 C3.55012121,0.411666667 3.69578788,0.620666667 3.78445455,0.874 L6.23545455,8.227 L8.49645455,0.874 C8.67378788,0.291333333 9.04112121,0 9.59845455,0 Z" id="Path"></path>
                <path d="M24.7345455,11.381 C25.6845455,11.381 26.6028788,11.1023333 27.4895455,10.545 L27.4895455,9.101 L24.6395455,9.101 C24.2088788,9.101 23.8668788,9.2055 23.6135455,9.4145 C23.3602121,9.6235 23.2335455,9.89266667 23.2335455,10.222 C23.2335455,10.564 23.3633788,10.8426667 23.6230455,11.058 C23.8827121,11.2733333 24.2532121,11.381 24.7345455,11.381 Z M25.5895455,5.054 C24.7282121,5.054 24.1265455,5.263 23.7845455,5.681 C23.5185455,6.01033333 23.1638788,6.175 22.7205455,6.175 L21.3335455,6.175 C21.1688788,6.175 21.0327121,6.12116667 20.9250455,6.0135 C20.8173788,5.90583333 20.7635455,5.76966667 20.7635455,5.605 C20.7635455,3.83166667 22.4482121,2.945 25.8175455,2.945 C27.2868788,2.945 28.4680455,3.27433333 29.3610455,3.933 C30.2540455,4.59166667 30.7005455,5.61133333 30.7005455,6.992 L30.7005455,12.73 C30.7005455,12.8946667 30.6467121,13.0308333 30.5390455,13.1385 C30.4313788,13.2461667 30.2952121,13.3 30.1305455,13.3 L28.3445455,13.3 C28.1798788,13.3 28.0437121,13.2461667 27.9360455,13.1385 C27.8283788,13.0308333 27.7745455,12.8946667 27.7745455,12.73 L27.7745455,12.445 C26.7992121,13.1416667 25.6782121,13.49 24.4115455,13.49 C23.1195455,13.49 22.0650455,13.205 21.2480455,12.635 C20.4310455,12.065 20.0225455,11.2606667 20.0225455,10.222 C20.0225455,9.18333333 20.4310455,8.38533333 21.2480455,7.828 C22.0650455,7.27066667 23.1195455,6.992 24.4115455,6.992 L27.4895455,6.992 C27.4895455,6.27 27.3375455,5.7665 27.0335455,5.4815 C26.7295455,5.1965 26.2482121,5.054 25.5895455,5.054 Z" id="Shape"></path>
                <path d="M34.9306364,13.3 L32.8596364,13.3 C32.6949697,13.3 32.558803,13.2461667 32.4511364,13.1385 C32.3434697,13.0308333 32.2896364,12.8946667 32.2896364,12.73 L32.2896364,0.57 C32.2896364,0.405333333 32.3434697,0.269166667 32.4511364,0.1615 C32.558803,0.0538333333 32.6949697,0 32.8596364,0 L34.9306364,0 C35.095303,0 35.2314697,0.0538333333 35.3391364,0.1615 C35.446803,0.269166667 35.5006364,0.405333333 35.5006364,0.57 L35.5006364,12.73 C35.5006364,12.8946667 35.446803,13.0308333 35.3391364,13.1385 C35.2314697,13.2461667 35.095303,13.3 34.9306364,13.3 Z" id="Path"></path>
                <path d="M40.3007273,0.57 L40.3007273,7.163 C41.3773939,7.163 42.1120606,6.745 42.5047273,5.909 L43.3977273,4.009 C43.5243939,3.743 43.7080606,3.53083333 43.9487273,3.3725 C44.1893939,3.21416667 44.4490606,3.135 44.7277273,3.135 L46.4757273,3.135 C46.9570606,3.135 47.0647273,3.42633333 46.7987273,4.009 L45.6017273,6.536 C45.3990606,6.954 45.1203939,7.315 44.7657273,7.619 C44.4110606,7.923 44.0310606,8.11933333 43.6257273,8.208 C44.3857273,8.436 45.0443939,8.99333333 45.6017273,9.88 L47.1787273,12.426 C47.3307273,12.6793333 47.3750606,12.8883333 47.3117273,13.053 C47.2483939,13.2176667 47.0963939,13.3 46.8557273,13.3 L45.1077273,13.3 C44.5123939,13.3 44.0373939,13.0086667 43.6827273,12.426 L42.5047273,10.507 C41.9980606,9.68366667 41.2633939,9.272 40.3007273,9.272 L40.3007273,12.73 C40.3007273,12.8946667 40.2468939,13.0308333 40.1392273,13.1385 C40.0315606,13.2461667 39.8953939,13.3 39.7307273,13.3 L37.6597273,13.3 C37.4950606,13.3 37.3588939,13.2461667 37.2512273,13.1385 C37.1435606,13.0308333 37.0897273,12.8946667 37.0897273,12.73 L37.0897273,0.57 C37.0897273,0.405333333 37.1435606,0.269166667 37.2512273,0.1615 C37.3588939,0.0538333333 37.4950606,0 37.6597273,0 L39.7307273,0 C39.8953939,0 40.0315606,0.0538333333 40.1392273,0.1615 C40.2468939,0.269166667 40.3007273,0.405333333 40.3007273,0.57 Z" id="Path"></path>
            </g>
            <g id="Walk-Back" transform="translate(132.985818, 265.700000)" fill="#BCBCBC" fill-rule="nonzero">
                <path d="M0,12.426 L0,0.874 C0,0.633333333 0.0855,0.4275 0.2565,0.2565 C0.4275,0.0855 0.633333333,0 0.874,0 L8.417,0 C9.26566667,0 10.0383333,0.117166667 10.735,0.3515 C11.4316667,0.585833333 12.0238333,0.9975 12.5115,1.5865 C12.9991667,2.1755 13.243,2.907 13.243,3.781 C13.243,4.731 12.825,5.548 11.989,6.232 C13.1796667,6.86533333 13.775,7.89133333 13.775,9.31 C13.775,10.5766667 13.3,11.5583333 12.35,12.255 C11.4,12.9516667 10.2346667,13.3 8.854,13.3 L0.874,13.3 C0.633333333,13.3 0.4275,13.2145 0.2565,13.0435 C0.0855,12.8725 0,12.6666667 0,12.426 Z M8.455,2.508 L3.496,2.508 L3.496,5.168 L8.455,5.168 C8.84766667,5.168 9.16116667,5.05083333 9.3955,4.8165 C9.62983333,4.58216667 9.747,4.256 9.747,3.838 C9.747,3.42 9.62983333,3.09383333 9.3955,2.8595 C9.16116667,2.62516667 8.84766667,2.508 8.455,2.508 Z M8.797,7.6 L3.496,7.6 L3.496,10.792 L8.797,10.792 C9.27833333,10.792 9.64566667,10.6495 9.899,10.3645 C10.1523333,10.0795 10.279,9.69 10.279,9.196 C10.279,8.702 10.1523333,8.3125 9.899,8.0275 C9.64566667,7.7425 9.27833333,7.6 8.797,7.6 Z" id="Shape"></path>
                <path d="M18.9360909,11.381 C19.8860909,11.381 20.8044242,11.1023333 21.6910909,10.545 L21.6910909,9.101 L18.8410909,9.101 C18.4104242,9.101 18.0684242,9.2055 17.8150909,9.4145 C17.5617576,9.6235 17.4350909,9.89266667 17.4350909,10.222 C17.4350909,10.564 17.5649242,10.8426667 17.8245909,11.058 C18.0842576,11.2733333 18.4547576,11.381 18.9360909,11.381 Z M19.7910909,5.054 C18.9297576,5.054 18.3280909,5.263 17.9860909,5.681 C17.7200909,6.01033333 17.3654242,6.175 16.9220909,6.175 L15.5350909,6.175 C15.3704242,6.175 15.2342576,6.12116667 15.1265909,6.0135 C15.0189242,5.90583333 14.9650909,5.76966667 14.9650909,5.605 C14.9650909,3.83166667 16.6497576,2.945 20.0190909,2.945 C21.4884242,2.945 22.6695909,3.27433333 23.5625909,3.933 C24.4555909,4.59166667 24.9020909,5.61133333 24.9020909,6.992 L24.9020909,12.73 C24.9020909,12.8946667 24.8482576,13.0308333 24.7405909,13.1385 C24.6329242,13.2461667 24.4967576,13.3 24.3320909,13.3 L22.5460909,13.3 C22.3814242,13.3 22.2452576,13.2461667 22.1375909,13.1385 C22.0299242,13.0308333 21.9760909,12.8946667 21.9760909,12.73 L21.9760909,12.445 C21.0007576,13.1416667 19.8797576,13.49 18.6130909,13.49 C17.3210909,13.49 16.2665909,13.205 15.4495909,12.635 C14.6325909,12.065 14.2240909,11.2606667 14.2240909,10.222 C14.2240909,9.18333333 14.6325909,8.38533333 15.4495909,7.828 C16.2665909,7.27066667 17.3210909,6.992 18.6130909,6.992 L21.6910909,6.992 C21.6910909,6.27 21.5390909,5.7665 21.2350909,5.4815 C20.9310909,5.1965 20.4497576,5.054 19.7910909,5.054 Z" id="Shape"></path>
                <path d="M31.6591818,5.187 C30.7725152,5.187 30.1455152,5.4245 29.7781818,5.8995 C29.4108485,6.3745 29.2271818,7.15033333 29.2271818,8.227 C29.2271818,9.291 29.4171818,10.0605 29.7971818,10.5355 C30.1771818,11.0105 30.8295152,11.248 31.7541818,11.248 C32.7168485,11.248 33.3818485,10.9566667 33.7491818,10.374 C34.0405152,9.918 34.3951818,9.69 34.8131818,9.69 L36.2001818,9.69 C36.3648485,9.69 36.5010152,9.74383333 36.6086818,9.8515 C36.7163485,9.95916667 36.7701818,10.0953333 36.7701818,10.26 C36.7701818,11.324 36.3110152,12.1283333 35.3926818,12.673 C34.4743485,13.2176667 33.1855152,13.49 31.5261818,13.49 C29.7148485,13.49 28.3278485,13.0435 27.3651818,12.1505 C26.4025152,11.2575 25.9211818,9.94966667 25.9211818,8.227 C25.9211818,6.49166667 26.3993485,5.1775 27.3556818,4.2845 C28.3120152,3.3915 29.6705152,2.945 31.4311818,2.945 C33.0905152,2.945 34.3793485,3.21733333 35.2976818,3.762 C36.2160152,4.30666667 36.6751818,5.111 36.6751818,6.175 C36.6751818,6.33966667 36.6213485,6.47583333 36.5136818,6.5835 C36.4060152,6.69116667 36.2698485,6.745 36.1051818,6.745 L34.7181818,6.745 C34.3001818,6.745 33.9455152,6.517 33.6541818,6.061 C33.2868485,5.47833333 32.6218485,5.187 31.6591818,5.187 Z" id="Path"></path>
                <path d="M40.8102727,0.57 L40.8102727,7.163 C41.8869394,7.163 42.6216061,6.745 43.0142727,5.909 L43.9072727,4.009 C44.0339394,3.743 44.2176061,3.53083333 44.4582727,3.3725 C44.6989394,3.21416667 44.9586061,3.135 45.2372727,3.135 L46.9852727,3.135 C47.4666061,3.135 47.5742727,3.42633333 47.3082727,4.009 L46.1112727,6.536 C45.9086061,6.954 45.6299394,7.315 45.2752727,7.619 C44.9206061,7.923 44.5406061,8.11933333 44.1352727,8.208 C44.8952727,8.436 45.5539394,8.99333333 46.1112727,9.88 L47.6882727,12.426 C47.8402727,12.6793333 47.8846061,12.8883333 47.8212727,13.053 C47.7579394,13.2176667 47.6059394,13.3 47.3652727,13.3 L45.6172727,13.3 C45.0219394,13.3 44.5469394,13.0086667 44.1922727,12.426 L43.0142727,10.507 C42.5076061,9.68366667 41.7729394,9.272 40.8102727,9.272 L40.8102727,12.73 C40.8102727,12.8946667 40.7564394,13.0308333 40.6487727,13.1385 C40.5411061,13.2461667 40.4049394,13.3 40.2402727,13.3 L38.1692727,13.3 C38.0046061,13.3 37.8684394,13.2461667 37.7607727,13.1385 C37.6531061,13.0308333 37.5992727,12.8946667 37.5992727,12.73 L37.5992727,0.57 C37.5992727,0.405333333 37.6531061,0.269166667 37.7607727,0.1615 C37.8684394,0.0538333333 38.0046061,0 38.1692727,0 L40.2402727,0 C40.4049394,0 40.5411061,0.0538333333 40.6487727,0.1615 C40.7564394,0.269166667 40.8102727,0.405333333 40.8102727,0.57 Z" id="Path"></path>
            </g>
        </g>
    </g>
</svg>
