<?xml version="1.0" encoding="UTF-8"?>
<svg width="1024px" height="1024px" viewBox="0 0 1024 1024" version="1.1" xmlns="http://www.w3.org/2000/svg" xmlns:xlink="http://www.w3.org/1999/xlink">
    <title>Extra Small@1x</title>
    <g id="Extra-Small" stroke="none" stroke-width="1" fill="none" fill-rule="evenodd">
        <rect fill="#FFFFFF" x="0" y="0" width="1024" height="1024"></rect>
        <g id="A" transform="translate(138.000000, 182.000000)" fill="#F200FF" fill-rule="nonzero">
            <path d="M1.63865546,642.835714 L122.571429,186.471429 C155.344538,62.1571429 261.529412,0 441.12605,0 L699.705882,0 C711.504202,0 721.336134,4.41642857 729.201681,13.2492857 C737.067227,22.0821429 741,32.3871429 741,44.1642857 L741,642.835714 C741,655.267143 736.57563,665.735714 727.726891,674.241429 C718.878151,682.747143 708.226891,687 695.773109,687 L605.319328,687 C592.210084,687 581.394958,682.747143 572.87395,674.241429 C564.352941,665.735714 560.092437,654.94 560.092437,641.854286 L560.092437,521.138571 L218.92437,521.138571 L186.478992,641.854286 C183.201681,654.94 175.991597,665.735714 164.848739,674.241429 C153.705882,682.747143 141.907563,687 129.453782,687 L35.0672269,687 C22.6134454,687 13.1092437,682.747143 6.55462185,674.241429 C0,665.735714 -1.63865546,655.267143 1.63865546,642.835714 Z M297.569851,230.001411 L255.517241,384.68705 L559.665184,384.68705 L559.665184,133.446043 L423.727679,133.446043 C393.084692,133.446043 366.353576,142.149163 343.534331,159.555403 C320.715085,176.961642 305.393592,200.443645 297.569851,230.001411 Z" id="Shape"></path>
        </g>
        <g id="A-Copy" transform="translate(113.000000, 161.000000)" fill="#8BD2FF" fill-rule="nonzero">
            <path d="M1.63865546,642.835714 L122.571429,186.471429 C155.344538,62.1571429 261.529412,0 441.12605,0 L699.705882,0 C711.504202,0 721.336134,4.41642857 729.201681,13.2492857 C737.067227,22.0821429 741,32.3871429 741,44.1642857 L741,642.835714 C741,655.267143 736.57563,665.735714 727.726891,674.241429 C718.878151,682.747143 708.226891,687 695.773109,687 L605.319328,687 C592.210084,687 581.394958,682.747143 572.87395,674.241429 C564.352941,665.735714 560.092437,654.94 560.092437,641.854286 L560.092437,521.138571 L218.92437,521.138571 L186.478992,641.854286 C183.201681,654.94 175.991597,665.735714 164.848739,674.241429 C153.705882,682.747143 141.907563,687 129.453782,687 L35.0672269,687 C22.6134454,687 13.1092437,682.747143 6.55462185,674.241429 C0,665.735714 -1.63865546,655.267143 1.63865546,642.835714 Z M297.569851,230.001411 L255.517241,384.68705 L559.665184,384.68705 L559.665184,133.446043 L423.727679,133.446043 C393.084692,133.446043 366.353576,142.149163 343.534331,159.555403 C320.715085,176.961642 305.393592,200.443645 297.569851,230.001411 Z" id="Shape"></path>
        </g>
        <g id="A-Copy-2" transform="translate(133.000000, 178.000000)" fill="#000000" fill-rule="nonzero">
            <path d="M1.6054843,631.607143 L120.090226,183.214286 C152.199912,61.0714286 256.235294,0 432.196373,0 L685.541796,0 C697.101283,0 706.734188,4.33928571 714.440513,13.0178571 C722.146838,21.6964286 726,31.8214286 726,43.3928571 L726,631.607143 C726,643.821429 721.665192,654.107143 712.995577,662.464286 C704.325962,670.821429 693.890314,675 681.688633,675 L593.0659,675 C580.222026,675 569.625829,670.821429 561.277311,662.464286 C552.928793,654.107143 548.754533,643.5 548.754533,630.642857 L548.754533,512.035714 L214.492702,512.035714 L182.704113,630.642857 C179.493145,643.5 172.429014,654.107143 161.51172,662.464286 C150.594427,670.821429 139.03494,675 126.83326,675 L34.357364,675 C22.1556833,675 12.8438744,670.821429 6.4219372,662.464286 C0,654.107143 -1.6054843,643.821429 1.6054843,631.607143 Z M291.54617,225.983919 L250.344828,377.967626 L548.335929,377.967626 L548.335929,131.115108 L415.150195,131.115108 C385.127512,131.115108 358.937512,139.666208 336.580194,156.768409 C314.222877,173.870609 299.211536,196.942446 291.54617,225.983919 Z" id="Shape"></path>
        </g>
    </g>
</svg>